<svg id="Layer_1" data-name="Layer 1" xmlns="http://www.w3.org/2000/svg" width="343.66" height="155.09" viewBox="0 0 343.66 155.09"><defs><style>.cls-1{fill:#fff;}</style></defs><title>hw-logo-white</title><path class="cls-1" d="M51.43,101.32a2.18,2.18,0,0,1,.2-.93,2.23,2.23,0,0,1,4.1,0,2.34,2.34,0,0,1,.2.93,2.25,2.25,0,1,1-4.5,0M88.31,51.49a2.27,2.27,0,0,1,2.25,2.28,2.43,2.43,0,0,1-.2.94,2.26,2.26,0,1,1-2-3.22M55.73,95.22v-10L89,73.91a2.07,2.07,0,0,0,1.4-2V59.87a6.35,6.35,0,1,0-4.1,0V70.44L53,81.75a2.07,2.07,0,0,0-1.39,2v11.5a6.35,6.35,0,1,0,4.1,0"/><path class="cls-1" d="M55.92,53.77a2.43,2.43,0,0,1-.19.94,2.3,2.3,0,1,1,.19-.94M71,62.94a2.28,2.28,0,0,1,0,4.56h-.22a2.27,2.27,0,0,1-2-2.27,2.31,2.31,0,0,1,.72-1.68,2.27,2.27,0,0,1,1.52-.6M51.63,59.87V71.11a2.1,2.1,0,0,0,.85,1.69,2,2,0,0,0,1.2.39,2.06,2.06,0,0,0,.65-.11l11.63-4a6.28,6.28,0,0,0,5,2.53,6.45,6.45,0,1,0-6.34-6.48l-8.92,3V59.87a6.35,6.35,0,1,0-4.1,0"/><path class="cls-1" d="M86.06,101.32a2.18,2.18,0,0,1,.2-.93,2.23,2.23,0,0,1,4.1,0,2.34,2.34,0,0,1,.2.93,2.25,2.25,0,1,1-4.5,0M71,92.72a2.28,2.28,0,0,1,0-4.56h.22a2.28,2.28,0,0,1,2,2.28,2.26,2.26,0,0,1-.73,1.67,2.18,2.18,0,0,1-1.52.6m19.37,2.5V84.55a2.1,2.1,0,0,0-.85-1.69,2,2,0,0,0-1.85-.28L76,86.54A6.3,6.3,0,0,0,71,84a6.45,6.45,0,1,0,6.35,6.48l8.92-3v7.77a6.35,6.35,0,1,0,4.1,0"/><path class="cls-1" d="M124.92,68.17a2,2,0,0,0-1.4.48,1.51,1.51,0,0,0-.52,1.11V76h-7.33V69.76a1.51,1.51,0,0,0-.51-1.11,1.92,1.92,0,0,0-1.33-.48,2,2,0,0,0-1.37.48,1.48,1.48,0,0,0-.55,1.11V85.35a1.5,1.5,0,0,0,.55,1.12,2,2,0,0,0,1.37.47,1.87,1.87,0,0,0,1.33-.48,1.5,1.5,0,0,0,.51-1.11V79.48H123v5.87a1.53,1.53,0,0,0,.52,1.12,2,2,0,0,0,1.4.47,1.91,1.91,0,0,0,1.31-.47,1.53,1.53,0,0,0,.52-1.12V69.76a1.49,1.49,0,0,0-.53-1.11,1.83,1.83,0,0,0-1.3-.48"/><path class="cls-1" d="M166.24,74v.52a1.69,1.69,0,0,1-.68,1.4,4.08,4.08,0,0,1-2.47.57h-3.17V71.8h3.17a3.91,3.91,0,0,1,2.46.6,2,2,0,0,1,.69,1.63m1,4.43a4.42,4.42,0,0,0,2.09-1.61,4.74,4.74,0,0,0,.68-2.57v-.19a6.63,6.63,0,0,0-.37-2.29,4.49,4.49,0,0,0-1.2-1.8,5.49,5.49,0,0,0-2.16-1.15,11,11,0,0,0-3.18-.4h-5a2,2,0,0,0-1.37.47,1.5,1.5,0,0,0-.55,1.12V85.27a1.59,1.59,0,0,0,.54,1.15,2.14,2.14,0,0,0,2.7.08,1.41,1.41,0,0,0,.52-1.09V79.75h4l3,6.44a1.59,1.59,0,0,0,1,.7,1.74,1.74,0,0,0,.45.06,2.15,2.15,0,0,0,.94-.24,2.25,2.25,0,0,0,1-1.1,1.19,1.19,0,0,0-.11-1.21Z"/><path class="cls-1" d="M187.38,75.93v3.64a3.5,3.5,0,0,1-1,2.67,3.86,3.86,0,0,1-2.74.92h-2.84V72h2.84a3.5,3.5,0,0,1,2.72,1,4.13,4.13,0,0,1,1,2.93m2-5.19A6.54,6.54,0,0,0,187,69.06a8.44,8.44,0,0,0-3.32-.61H179a2,2,0,0,0-1.39.48,1.47,1.47,0,0,0-.53,1.11v15a1.49,1.49,0,0,0,.53,1.12,2,2,0,0,0,1.39.48h4.68A9,9,0,0,0,187,86.1a6.6,6.6,0,0,0,2.35-1.59,6.42,6.42,0,0,0,1.36-2.37,9.29,9.29,0,0,0,.44-2.88V76.21a10.06,10.06,0,0,0-.44-3,6.65,6.65,0,0,0-1.36-2.48"/><path class="cls-1" d="M236.79,79.49h-4.13l2-6Zm.49-10s-.48-1.28-2.58-1.28-2.57,1.32-2.57,1.32L226.81,84.8A1.48,1.48,0,0,0,227,86a2,2,0,0,0,1.22.83,2.11,2.11,0,0,0,.54.07,1.86,1.86,0,0,0,.84-.2,1.67,1.67,0,0,0,.84-.92l1-3h6.43l1,3a1.48,1.48,0,0,0,.81.92,2,2,0,0,0,1.41.13,1.89,1.89,0,0,0,1.21-.84,1.54,1.54,0,0,0,.19-1.22Z"/><path class="cls-1" d="M259.48,74v.52a1.7,1.7,0,0,1-.69,1.4,4.08,4.08,0,0,1-2.47.57h-3.17V71.8h3.17a3.89,3.89,0,0,1,2.46.6,2,2,0,0,1,.7,1.63m1,4.43a4.44,4.44,0,0,0,2.08-1.61,4.74,4.74,0,0,0,.68-2.57v-.19a6.63,6.63,0,0,0-.37-2.29,4.39,4.39,0,0,0-1.2-1.8,5.42,5.42,0,0,0-2.16-1.15,21.23,21.23,0,0,0-4.36-.4h-3.82a2,2,0,0,0-1.38.47A1.48,1.48,0,0,0,249.4,70V85.27a1.62,1.62,0,0,0,.53,1.15,1.94,1.94,0,0,0,1.39.52,2,2,0,0,0,1.32-.44,1.43,1.43,0,0,0,.51-1.09V79.75h4l3,6.44a1.54,1.54,0,0,0,1,.7,1.74,1.74,0,0,0,.45.06,2.11,2.11,0,0,0,.94-.24,2.25,2.25,0,0,0,1-1.1,1.22,1.22,0,0,0-.1-1.21Z"/><path class="cls-1" d="M272.23,68.17a2,2,0,0,0-1.39.48,1.49,1.49,0,0,0-.53,1.11V85.32a1.49,1.49,0,0,0,.53,1.12,2,2,0,0,0,1.39.47,1.91,1.91,0,0,0,1.31-.47,1.51,1.51,0,0,0,.53-1.12V69.76a1.49,1.49,0,0,0-.53-1.11,1.87,1.87,0,0,0-1.31-.48"/><path class="cls-1" d="M288.55,83.37a5.21,5.21,0,0,1-3.1-.87,4,4,0,0,1-.91-3V75.63a4,4,0,0,1,.91-3,6,6,0,0,1,6.23,0,4.08,4.08,0,0,1,.89,3v3.88a4.12,4.12,0,0,1-.89,3,5.23,5.23,0,0,1-3.13.86m7.36-10.65a6.46,6.46,0,0,0-1.33-2.38,6.21,6.21,0,0,0-2.24-1.59,11.52,11.52,0,0,0-3.79-.58,11.4,11.4,0,0,0-3.75.58,6.12,6.12,0,0,0-2.24,1.59,6.55,6.55,0,0,0-1.3,2.38,9.7,9.7,0,0,0-.42,2.91v3.86a9.8,9.8,0,0,0,.42,2.91,6.55,6.55,0,0,0,1.3,2.38,6.24,6.24,0,0,0,2.24,1.59,11.41,11.41,0,0,0,3.75.57,11.53,11.53,0,0,0,3.79-.57,6.21,6.21,0,0,0,2.24-1.59,6.46,6.46,0,0,0,1.33-2.38,9.8,9.8,0,0,0,.42-2.91V75.63a9.7,9.7,0,0,0-.42-2.91"/><path class="cls-1" d="M221.9,69.22a1.84,1.84,0,0,0-3.42.19l-3.44,10-3.42-10a1.93,1.93,0,0,0-1.77-1.26,1.86,1.86,0,0,0-1.75,1.26l-3.44,10-3.44-10a1.89,1.89,0,0,0-1-1.08,1.79,1.79,0,0,0-1.42-.08,1.9,1.9,0,0,0-1.12,2.41l5.18,15A1.87,1.87,0,0,0,204.65,87a1.89,1.89,0,0,0,1.76-1.28l3.44-10,3.43,9.93a1.84,1.84,0,0,0,3.5,0l5.2-15a1.85,1.85,0,0,0-.08-1.44"/><path class="cls-1" d="M143.56,79.48h-4.14l2.05-6Zm.49-10s-.49-1.29-2.58-1.29-2.57,1.32-2.57,1.32l-5.32,15.27a1.44,1.44,0,0,0,.21,1.22,1.92,1.92,0,0,0,1.22.83,2,2,0,0,0,.54.08,1.77,1.77,0,0,0,.84-.21,1.64,1.64,0,0,0,.84-.92l1.05-3h6.42l1,3a1.53,1.53,0,0,0,.82.92,1.92,1.92,0,0,0,1.41.14,1.89,1.89,0,0,0,1.21-.84,1.51,1.51,0,0,0,.18-1.23Z"/></svg>